<svg xmlns="http://www.w3.org/2000/svg" viewBox="0 0 120 120" fill="none">
  <defs>
    <linearGradient id="faceBg" x1="0" y1="0" x2="1" y2="1">
      <stop offset="0" stop-color="#f5f5f5"/>
      <stop offset="1" stop-color="#c9c9c9"/>
    </linearGradient>
  </defs>
  <rect x="8" y="8" width="104" height="104" rx="15" fill="url(#faceBg)" stroke="#d2d6df" stroke-width="3"/>
  <ellipse cx="60" cy="59" rx="24" ry="30" fill="#a3a8ad"/>
  <circle cx="51" cy="55" r="2.4" fill="#5d6168"/>
  <circle cx="69" cy="55" r="2.4" fill="#5d6168"/>
  <path d="M58 62L55 70H63" stroke="#6b7178" stroke-width="1.8" stroke-linecap="round" stroke-linejoin="round"/>
  <path d="M52 78C57 82 63 82 68 78" stroke="#6b7178" stroke-width="2" stroke-linecap="round"/>
  <path d="M24 26L96 26M24 42L96 42M24 58L96 58M24 74L96 74M24 90L96 90" stroke="#9ca3af" stroke-width="0.8" opacity="0.45"/>
  <path d="M24 26L24 94M40 26L40 94M56 26L56 94M72 26L72 94M88 26L88 94" stroke="#9ca3af" stroke-width="0.8" opacity="0.45"/>
</svg>
