<svg xmlns="http://www.w3.org/2000/svg" viewBox="0 0 120 120" fill="none">
  <defs>
    <linearGradient id="skin" x1="0" y1="0" x2="1" y2="1">
      <stop offset="0" stop-color="#ddb19e"/>
      <stop offset="1" stop-color="#bf8f82"/>
    </linearGradient>
  </defs>
  <rect x="9" y="9" width="102" height="102" rx="14" fill="url(#skin)" stroke="#87e1ff" stroke-width="2.5" stroke-dasharray="7 6"/>
  <path d="M24 60C35 48 52 47 60 56C68 47 85 48 96 60C84 72 68 75 60 66C52 75 35 72 24 60Z" fill="#d17a7e"/>
  <path d="M28 60C37 55 48 53 60 58C72 53 83 55 92 60" stroke="#8d4e53" stroke-width="2" stroke-linecap="round"/>
  <path d="M32 66C42 70 51 70 60 66C69 70 78 70 88 66" stroke="#8d4e53" stroke-width="1.8" stroke-linecap="round"/>
</svg>
