<svg xmlns="http://www.w3.org/2000/svg" viewBox="0 0 120 120" fill="none">
  <defs>
    <linearGradient id="voiceBg" x1="0" y1="0" x2="1" y2="1">
      <stop offset="0" stop-color="#263042"/>
      <stop offset="1" stop-color="#111929"/>
    </linearGradient>
  </defs>
  <rect x="7" y="7" width="106" height="106" rx="14" fill="url(#voiceBg)" stroke="#d8deec" stroke-width="2.5"/>
  <path d="M15 30H105M15 48H105M15 66H105M15 84H105" stroke="#324059" stroke-width="1" opacity="0.9"/>
  <path d="M28 60C34 42 41 80 47 60C53 40 60 80 66 60C72 44 79 74 86 60" stroke="#9fe8ff" stroke-width="3" stroke-linecap="round" stroke-linejoin="round"/>
  <path d="M30 62C36 52 43 72 49 62C55 52 62 72 68 62C74 54 80 68 86 62" stroke="#e78cff" stroke-width="2.2" stroke-linecap="round" stroke-linejoin="round" opacity="0.75"/>
</svg>
